<svg width="14" height="14" viewBox="0 0 14 14" fill="none" xmlns="http://www.w3.org/2000/svg">
<path d="M0.554199 4.52083V1.54584C0.554199 1.28283 0.658678 1.03059 0.844652 0.844621C1.03063 0.658648 1.28286 0.554169 1.54587 0.554169H4.52087C4.78387 0.554169 5.03611 0.658648 5.22208 0.844621C5.40805 1.03059 5.51253 1.28283 5.51253 1.54584V4.52083C5.51253 4.78384 5.40805 5.03608 5.22208 5.22205C5.03611 5.40802 4.78387 5.5125 4.52087 5.5125H1.54587C1.28286 5.5125 1.03063 5.40802 0.844652 5.22205C0.658678 5.03608 0.554199 4.78384 0.554199 4.52083ZM8.48753 4.52083V1.54584C8.48753 1.28283 8.59201 1.03059 8.77798 0.844621C8.96396 0.658648 9.21619 0.554169 9.4792 0.554169H12.4542C12.7172 0.554169 12.9694 0.658648 13.1554 0.844621C13.3414 1.03059 13.4459 1.28283 13.4459 1.54584V4.52083C13.4459 4.78384 13.3414 5.03608 13.1554 5.22205C12.9694 5.40802 12.7172 5.5125 12.4542 5.5125H9.4792C9.21619 5.5125 8.96396 5.40802 8.77798 5.22205C8.59201 5.03608 8.48753 4.78384 8.48753 4.52083ZM8.48753 12.4542V9.47917C8.48753 9.21616 8.59201 8.96393 8.77798 8.77795C8.96396 8.59198 9.21619 8.4875 9.4792 8.4875H12.4542C12.7172 8.4875 12.9694 8.59198 13.1554 8.77795C13.3414 8.96393 13.4459 9.21616 13.4459 9.47917V12.4542C13.4459 12.7172 13.3414 12.9694 13.1554 13.1554C12.9694 13.3414 12.7172 13.4458 12.4542 13.4458H9.4792C9.21619 13.4458 8.96396 13.3414 8.77798 13.1554C8.59201 12.9694 8.48753 12.7172 8.48753 12.4542ZM0.554199 12.4542V9.47917C0.554199 9.21616 0.658678 8.96393 0.844652 8.77795C1.03063 8.59198 1.28286 8.4875 1.54587 8.4875H4.52087C4.78387 8.4875 5.03611 8.59198 5.22208 8.77795C5.40805 8.96393 5.51253 9.21616 5.51253 9.47917V12.4542C5.51253 12.7172 5.40805 12.9694 5.22208 13.1554C5.03611 13.3414 4.78387 13.4458 4.52087 13.4458H1.54587C1.28286 13.4458 1.03063 13.3414 0.844652 13.1554C0.658678 12.9694 0.554199 12.7172 0.554199 12.4542Z" stroke="white" stroke-linecap="round" stroke-linejoin="round"/>
</svg>
