<svg width="16" height="8" viewBox="0 0 16 8" fill="none" xmlns="http://www.w3.org/2000/svg">
<path d="M4.18603 1.14003C4.04522 1.14003 3.92754 1.09243 3.833 0.997225C3.73846 0.902025 3.69086 0.784017 3.6902 0.6432C3.68954 0.502383 3.73714 0.384706 3.833 0.290167C3.92886 0.195628 4.04654 0.148359 4.18603 0.148359H15.4375C15.5783 0.148359 15.696 0.195628 15.7905 0.290167C15.8857 0.385367 15.9333 0.503375 15.9333 0.644192C15.9333 0.785009 15.8857 0.902686 15.7905 0.997225C15.6953 1.09176 15.5776 1.13936 15.4375 1.14003H4.18603ZM4.18603 4.49582C4.04522 4.49582 3.92754 4.44823 3.833 4.35302C3.73846 4.25782 3.69086 4.13982 3.6902 3.999C3.68954 3.85818 3.73714 3.74051 3.833 3.64597C3.92886 3.55143 4.04654 3.50416 4.18603 3.50416H15.4375C15.5783 3.50416 15.696 3.55176 15.7905 3.64696C15.8851 3.74216 15.9327 3.86017 15.9333 4.00098C15.934 4.1418 15.8864 4.25948 15.7905 4.35402C15.6947 4.44856 15.577 4.49582 15.4375 4.49582H4.18603ZM4.18603 7.85262C4.04522 7.85262 3.92754 7.80502 3.833 7.70982C3.7378 7.61462 3.6902 7.49661 3.6902 7.35579C3.6902 7.21497 3.7378 7.0973 3.833 7.00276C3.9282 6.90822 4.04588 6.86062 4.18603 6.85996H15.4375C15.5783 6.85996 15.696 6.90789 15.7905 7.00375C15.8851 7.09961 15.9327 7.21729 15.9333 7.35678C15.934 7.49628 15.8864 7.61396 15.7905 7.70982C15.6947 7.80568 15.577 7.85328 15.4375 7.85262H4.18603ZM0.677517 1.25307C0.504306 1.25307 0.359192 1.19258 0.242175 1.0716C0.125159 0.951939 0.0666504 0.802858 0.0666504 0.624358C0.0666504 0.457097 0.125159 0.316942 0.242175 0.203892C0.359192 0.0901807 0.504306 0.0333252 0.677517 0.0333252C0.850067 0.0333252 0.99485 0.0901807 1.11187 0.203892C1.22888 0.316281 1.28739 0.456436 1.28739 0.624358C1.28739 0.802858 1.22888 0.95227 1.11187 1.07259C0.99485 1.19358 0.849736 1.25407 0.676525 1.25407M0.676525 4.59102C0.503975 4.59102 0.359192 4.5345 0.242175 4.42145C0.125159 4.3084 0.0666504 4.16791 0.0666504 3.99999C0.0666504 3.80827 0.125159 3.65555 0.242175 3.54184C0.359192 3.42813 0.504306 3.37094 0.677517 3.37028C0.850728 3.36962 0.995511 3.42648 1.11187 3.54085C1.22822 3.65522 1.28673 3.80827 1.28739 3.99999C1.28739 4.16725 1.22888 4.30774 1.11187 4.42145C0.99485 4.53516 0.849736 4.59169 0.676525 4.59102ZM0.676525 7.96666C0.503975 7.96666 0.359192 7.9065 0.242175 7.78617C0.125159 7.66519 0.0666504 7.51578 0.0666504 7.33794C0.0666504 7.17002 0.125159 7.02953 0.242175 6.91648C0.359192 6.80277 0.504306 6.74592 0.677517 6.74592C0.850067 6.74592 0.99485 6.80277 1.11187 6.91648C1.22888 7.03019 1.28739 7.17068 1.28739 7.33794C1.28739 7.51578 1.22888 7.66519 1.11187 7.78617C0.99485 7.9065 0.849736 7.96666 0.676525 7.96666Z" fill="black"/>
</svg>
