<svg width="22" height="22" viewBox="0 0 22 22" fill="none" xmlns="http://www.w3.org/2000/svg">
<path fill-rule="evenodd" clip-rule="evenodd" d="M7.87698 6.04564V5.18887C7.87698 4.34934 8.21048 3.5442 8.80411 2.95057C9.39774 2.35694 10.2029 2.02344 11.0424 2.02344C11.8819 2.02344 12.6871 2.35694 13.2807 2.95057C13.8743 3.5442 14.2078 4.34934 14.2078 5.18887V6.04564C15.2942 6.07856 15.9594 6.19505 16.4667 6.61626C17.1698 7.20039 17.3555 8.188 17.7261 10.1641L18.3592 13.5405C18.88 16.3194 19.14 17.7088 18.3811 18.6238C17.6214 19.5388 16.2075 19.5388 13.3806 19.5388H8.70421C5.87643 19.5388 4.46338 19.5388 3.70368 18.6238C2.94398 17.7088 3.20565 16.3194 3.72563 13.5405L4.35871 10.1641C4.73012 8.18885 4.91498 7.20039 5.61813 6.61626C6.12544 6.19505 6.7906 6.07856 7.87698 6.04564ZM9.14315 5.18887C9.14315 4.68515 9.34325 4.20207 9.69943 3.84589C10.0556 3.48971 10.5387 3.28961 11.0424 3.28961C11.5461 3.28961 12.0292 3.48971 12.3854 3.84589C12.7416 4.20207 12.9417 4.68515 12.9417 5.18887V6.03298H9.14315V5.18887ZM13.9706 10.181C14.0357 10.2329 14.0898 10.2972 14.1299 10.3701C14.1701 10.4429 14.1955 10.523 14.2047 10.6058C14.2138 10.6885 14.2066 10.7722 14.1834 10.8521C14.1602 10.932 14.1215 11.0066 14.0694 11.0715L10.6929 15.2921C10.6373 15.3616 10.5676 15.4185 10.4884 15.4592C10.4092 15.4999 10.3223 15.5235 10.2334 15.5284C10.1445 15.5332 10.0556 15.5193 9.97246 15.4874C9.88932 15.4556 9.81383 15.4066 9.75091 15.3436L8.06268 13.6553C7.95086 13.5353 7.88998 13.3766 7.89287 13.2126C7.89576 13.0486 7.96221 12.8921 8.0782 12.7761C8.19419 12.6601 8.35068 12.5936 8.51469 12.5908C8.6787 12.5879 8.83743 12.6487 8.95745 12.7606L10.146 13.9482L13.0801 10.2797C13.132 10.2147 13.1963 10.1606 13.2692 10.1204C13.3421 10.0803 13.4222 10.0549 13.5049 10.0457C13.5876 10.0365 13.6713 10.0438 13.7512 10.067C13.8311 10.0902 13.9057 10.1289 13.9706 10.181Z" fill="white"/>
</svg>
