<svg width="24" height="25" viewBox="0 0 24 25" fill="none" xmlns="http://www.w3.org/2000/svg">
<path d="M19.6943 12.9513L11.2182 4.24066C11.1484 4.17046 11.0932 4.08713 11.0559 3.99547C11.0185 3.90381 10.9997 3.80565 11.0005 3.70667C11.0013 3.60769 11.0218 3.50986 11.0607 3.41883C11.0995 3.3278 11.1561 3.24539 11.227 3.17636C11.298 3.10734 11.3819 3.05306 11.474 3.01669C11.566 2.98031 11.6644 2.96255 11.7633 2.96443C11.8623 2.96631 11.9599 2.98781 12.0505 3.02766C12.1411 3.06752 12.2229 3.12495 12.2912 3.19662L21.2743 12.4293C21.4103 12.569 21.4863 12.7563 21.4863 12.9513C21.4863 13.1463 21.4103 13.3335 21.2743 13.4733L12.2912 22.7059C12.2229 22.7776 12.1411 22.835 12.0505 22.8749C11.9599 22.9148 11.8623 22.9362 11.7633 22.9381C11.6644 22.94 11.566 22.9223 11.474 22.8859C11.3819 22.8495 11.298 22.7952 11.227 22.7262C11.1561 22.6572 11.0995 22.5748 11.0607 22.4837C11.0218 22.3927 11.0013 22.2949 11.0005 22.1959C10.9997 22.0969 11.0185 21.9988 11.0559 21.9071C11.0932 21.8154 11.1484 21.7321 11.2182 21.6619L19.6943 12.9513Z" fill="white"/>
</svg>
