<svg width="24" height="25" viewBox="0 0 24 25" fill="none" xmlns="http://www.w3.org/2000/svg">
<path d="M4.30574 12.9513L12.7818 4.24066C12.8516 4.17046 12.9068 4.08713 12.9441 3.99547C12.9815 3.90381 13.0003 3.80565 12.9995 3.70667C12.9987 3.60769 12.9782 3.50986 12.9393 3.41883C12.9005 3.3278 12.8439 3.24539 12.773 3.17636C12.702 3.10734 12.6181 3.05306 12.526 3.01669C12.434 2.98031 12.3356 2.96255 12.2367 2.96443C12.1377 2.96631 12.0401 2.98781 11.9495 3.02766C11.8589 3.06752 11.7771 3.12495 11.7088 3.19662L2.72571 12.4293C2.58975 12.569 2.51367 12.7563 2.51367 12.9513C2.51367 13.1463 2.58975 13.3335 2.72571 13.4733L11.7088 22.7059C11.7771 22.7776 11.8589 22.835 11.9495 22.8749C12.0401 22.9148 12.1377 22.9362 12.2367 22.9381C12.3356 22.94 12.434 22.9223 12.526 22.8859C12.6181 22.8495 12.702 22.7952 12.773 22.7262C12.8439 22.6572 12.9005 22.5748 12.9393 22.4837C12.9782 22.3927 12.9987 22.2949 12.9995 22.1959C13.0003 22.0969 12.9815 21.9988 12.9441 21.9071C12.9068 21.8154 12.8516 21.7321 12.7818 21.6619L4.30574 12.9513Z" fill="white"/>
</svg>
