<svg width="40" height="40" viewBox="0 0 40 40" fill="none" xmlns="http://www.w3.org/2000/svg">
<path d="M16.8958 2.6354C17.2866 2.19893 17.7651 1.84979 18.3 1.61075C18.8348 1.37172 19.4141 1.24817 20 1.24817C20.5858 1.24817 21.1651 1.37172 21.7 1.61075C22.2349 1.84979 22.7133 2.19893 23.1042 2.6354L24.5625 4.26457C24.9793 4.73018 25.4955 5.09609 26.0728 5.33518C26.6502 5.57428 27.274 5.68044 27.8979 5.64582L30.0854 5.52498C30.6705 5.49273 31.2558 5.58425 31.8031 5.79357C32.3505 6.00289 32.8475 6.3253 33.2617 6.73975C33.676 7.15421 33.9982 7.65137 34.2072 8.19879C34.4163 8.74621 34.5075 9.33157 34.475 9.91665L34.3542 12.1021C34.3198 12.7257 34.4262 13.349 34.6653 13.926C34.9043 14.503 35.2701 15.0188 35.7354 15.4354L37.3646 16.8937C37.8014 17.2846 38.1508 17.7631 38.3901 18.2982C38.6293 18.8333 38.753 19.4128 38.753 19.9989C38.753 20.5851 38.6293 21.1646 38.3901 21.6997C38.1508 22.2348 37.8014 22.7133 37.3646 23.1042L35.7354 24.5625C35.2698 24.9793 34.9039 25.4955 34.6648 26.0728C34.4257 26.6502 34.3195 27.274 34.3542 27.8979L34.475 30.0854C34.5072 30.6705 34.4157 31.2558 34.2064 31.8031C33.9971 32.3505 33.6747 32.8475 33.2602 33.2617C32.8458 33.676 32.3486 33.9982 31.8012 34.2072C31.2538 34.4163 30.6684 34.5075 30.0833 34.475L27.8979 34.3542C27.2743 34.3198 26.6509 34.4262 26.074 34.6652C25.497 34.9043 24.9811 35.2701 24.5646 35.7354L23.1062 37.3646C22.7154 37.8014 22.2368 38.1508 21.7018 38.3901C21.1667 38.6293 20.5872 38.753 20.001 38.753C19.4149 38.753 18.8354 38.6293 18.3003 38.3901C17.7652 38.1508 17.2866 37.8014 16.8958 37.3646L15.4375 35.7354C15.0207 35.2698 14.5045 34.9039 13.9271 34.6648C13.3498 34.4257 12.726 34.3195 12.1021 34.3542L9.91457 34.475C9.32948 34.5072 8.74416 34.4157 8.19684 34.2064C7.64952 33.9971 7.1525 33.6747 6.73825 33.2602C6.324 32.8458 6.00182 32.3486 5.79276 31.8012C5.5837 31.2538 5.49246 30.6684 5.52499 30.0833L5.64582 27.8979C5.68013 27.2743 5.57381 26.6509 5.33472 26.074C5.09564 25.497 4.7299 24.9811 4.26457 24.5646L2.6354 23.1062C2.19859 22.7154 1.84915 22.2368 1.60991 21.7018C1.37067 21.1667 1.24701 20.5872 1.24701 20.001C1.24701 19.4149 1.37067 18.8354 1.60991 18.3003C1.84915 17.7652 2.19859 17.2866 2.6354 16.8958L4.26457 15.4375C4.73019 15.0207 5.09609 14.5045 5.33519 13.9271C5.57428 13.3498 5.68045 12.726 5.64582 12.1021L5.52499 9.91457C5.49304 9.32964 5.58479 8.74456 5.79424 8.19749C6.0037 7.65042 6.32616 7.15366 6.74057 6.73964C7.15499 6.32562 7.65205 6.00363 8.19932 5.79469C8.74659 5.58575 9.33176 5.49456 9.91665 5.52707L12.1021 5.6479C12.7257 5.68221 13.349 5.57589 13.926 5.3368C14.503 5.09772 15.0188 4.73198 15.4354 4.26665L16.8958 2.6354Z" stroke="black" stroke-width="1.5"/>
<path d="M14.7916 14.7916H14.8125V14.8125H14.7916V14.7916ZM25.2083 25.2083H25.2291V25.2291H25.2083V25.2083Z" stroke="black" stroke-width="2.25" stroke-linejoin="round"/>
<path d="M26.25 13.75L13.75 26.25" stroke="black" stroke-width="1.5" stroke-linecap="round" stroke-linejoin="round"/>
</svg>
