<svg width="18" height="25" viewBox="0 0 18 25" fill="none" xmlns="http://www.w3.org/2000/svg">
<g clip-path="url(#clip0_1101_2)">
<path d="M9 23.375C13.375 17.25 16.875 12 16.875 8.5C16.875 6.41142 16.0453 4.40838 14.5685 2.93153C13.0916 1.45469 11.0886 0.625 9 0.625C6.91142 0.625 4.90838 1.45469 3.43153 2.93153C1.95469 4.40838 1.125 6.41142 1.125 8.5C1.125 12 4.625 17.25 9 23.375Z" stroke="#B2B2B2"/>
<path d="M12.5 8.5C12.5 9.42826 12.1313 10.3185 11.4749 10.9749C10.8185 11.6313 9.92826 12 9 12C8.07174 12 7.1815 11.6313 6.52513 10.9749C5.86875 10.3185 5.5 9.42826 5.5 8.5C5.5 7.57174 5.86875 6.6815 6.52513 6.02513C7.1815 5.36875 8.07174 5 9 5C9.92826 5 10.8185 5.36875 11.4749 6.02513C12.1313 6.6815 12.5 7.57174 12.5 8.5Z" stroke="#B2B2B2"/>
</g>
<defs>
<clipPath id="clip0_1101_2">
<rect width="18" height="25" fill="white"/>
</clipPath>
</defs>
</svg>
