<svg width="36" height="40" viewBox="0 0 36 40" fill="none" xmlns="http://www.w3.org/2000/svg">
<path d="M34.3955 28.8642C33.3906 22.8665 30.519 17.3388 26.1895 13.0682C25.2417 12.146 24.7687 11.6859 23.7218 11.2605C22.675 10.8334 21.7748 10.8334 19.9763 10.8334H16.0237C14.2252 10.8334 13.325 10.8334 12.2782 11.2605C11.2332 11.6859 10.7565 12.146 9.8105 13.0682C5.481 17.3388 2.60934 22.8665 1.6045 28.8642C0.711662 34.2505 5.67999 38.3334 11.2313 38.3334H24.7687C30.3218 38.3334 35.292 34.2505 34.3937 28.8642" stroke="#222222" stroke-width="1.5" stroke-linecap="round" stroke-linejoin="round"/>
<path d="M20.9828 21.6849C20.5868 20.22 18.5683 18.9 16.1465 19.8882C13.7247 20.8764 13.3415 24.0535 17.0027 24.3927C18.66 24.5449 19.738 24.2149 20.7262 25.148C21.7162 26.0794 21.8995 28.6735 19.3713 29.372C16.8468 30.0705 14.3443 28.9797 14.073 27.4287M17.7103 18.152V19.5472M17.7103 29.5865V30.9872M9.30451 6.14552C8.92501 5.59552 8.37684 4.84752 9.50984 4.67885C10.674 4.50285 11.8822 5.29852 13.0665 5.28385C14.1353 5.26735 14.6798 4.79252 15.2665 4.11419C15.8825 3.40102 16.8358 1.66669 18 1.66669C19.1642 1.66669 20.1175 3.40102 20.7335 4.11419C21.3202 4.79252 21.8647 5.26919 22.9335 5.28202C24.1178 5.30035 25.326 4.50285 26.4902 4.67702C27.6232 4.84752 27.075 5.59369 26.6955 6.14369L24.9868 8.63519C24.2535 9.69852 23.8887 10.2302 23.1223 10.5327C22.356 10.8352 21.3678 10.8334 19.3897 10.8334H16.6103C14.6303 10.8334 13.6422 10.8334 12.8777 10.5327C12.1132 10.232 11.7465 9.69669 11.0132 8.63335L9.30451 6.14552Z" stroke="#222222" stroke-width="1.5" stroke-linecap="round" stroke-linejoin="round"/>
</svg>
