<svg width="35" height="25" viewBox="0 0 35 25" fill="none" xmlns="http://www.w3.org/2000/svg">
<path d="M20.1876 13.2579C19.1771 13.2579 18.3272 12.9133 17.638 12.2241C16.9488 11.5349 16.6042 10.685 16.6042 9.67453C16.6042 8.66403 16.9488 7.81418 17.638 7.12498C18.3272 6.43579 19.1771 6.09119 20.1876 6.09119C21.1981 6.09119 22.0479 6.43579 22.7371 7.12498C23.4263 7.81418 23.7709 8.66403 23.7709 9.67453C23.7709 10.685 23.4263 11.5349 22.7371 12.2241C22.0479 12.9133 21.1981 13.2579 20.1876 13.2579ZM9.09358 18.9787C8.29688 18.9787 7.61545 18.695 7.04928 18.1276C6.48192 17.5602 6.19824 16.8788 6.19824 16.0833V3.26573C6.19824 2.47023 6.48192 1.7894 7.04928 1.22323C7.61664 0.657067 8.29748 0.373387 9.09178 0.372192H31.2816C32.0783 0.372192 32.7597 0.655276 33.3259 1.22144C33.892 1.78761 34.1757 2.46904 34.1769 3.26573V16.0833C34.1769 16.8788 33.8932 17.5597 33.3259 18.1258C32.7597 18.6944 32.0789 18.9787 31.2834 18.9787H9.09358ZM10.8852 17.187H29.4899C29.4899 16.3843 29.7736 15.7011 30.341 15.1373C30.9071 14.5735 31.5879 14.2917 32.3834 14.2917V5.0574C31.5832 5.0574 30.9011 4.77432 30.3374 4.20815C29.7724 3.64079 29.4899 2.95936 29.4899 2.16386H10.8852C10.8852 2.96533 10.6016 3.64796 10.0342 4.21173C9.46803 4.77551 8.7872 5.0574 7.9917 5.0574V14.2917C8.79198 14.2917 9.4746 14.5753 10.0396 15.1427C10.6034 15.7089 10.8852 16.3897 10.8852 17.1852M27.9742 24.3519H3.71858C2.92188 24.3519 2.24045 24.0688 1.67428 23.5026C1.10692 22.9352 0.823242 22.2538 0.823242 21.4583V6.57315C0.823242 6.31993 0.909242 6.10732 1.08124 5.93532C1.25324 5.76332 1.46645 5.67732 1.72087 5.67732C1.97528 5.67732 2.1879 5.76332 2.3587 5.93532C2.52951 6.10732 2.61491 6.31993 2.61491 6.57315V21.4583C2.61491 21.733 2.72958 21.9857 2.95891 22.2162C3.18944 22.4467 3.44266 22.562 3.71858 22.562H27.9742C28.2286 22.562 28.4412 22.6474 28.612 22.8182C28.784 22.9902 28.87 23.2034 28.87 23.4578C28.87 23.7122 28.784 23.9248 28.612 24.0956C28.44 24.2665 28.2274 24.3507 27.9742 24.3519ZM9.09358 17.187H7.98991V2.16207H9.09358C8.79496 2.16207 8.53637 2.27136 8.31778 2.48994C8.0992 2.70853 7.98991 2.96653 7.98991 3.26394V16.0833C7.98991 16.3819 8.0992 16.6405 8.31778 16.8591C8.53637 17.0777 8.79496 17.187 9.09358 17.187Z" fill="#252525"/>
</svg>
