<svg width="20" height="20" viewBox="0 0 20 20" fill="none" xmlns="http://www.w3.org/2000/svg">
<path d="M1.75202 4.92478C1.74671 4.82642 1.72207 4.73007 1.67951 4.64124C1.63696 4.5524 1.57732 4.47281 1.50401 4.40702C1.4307 4.34123 1.34514 4.29053 1.25224 4.2578C1.15933 4.22507 1.06088 4.21096 0.962524 4.21628C0.864164 4.2216 0.767814 4.24624 0.678977 4.2888C0.590139 4.33135 0.510553 4.39099 0.444763 4.4643C0.378973 4.53761 0.328267 4.62316 0.295539 4.71607C0.262812 4.80898 0.248705 4.90742 0.254024 5.00578L1.75202 4.92478ZM2.71802 1.09178C2.58669 1.23692 2.5173 1.42766 2.52467 1.62326C2.53205 1.81886 2.6156 2.00383 2.75749 2.13867C2.89938 2.27351 3.08836 2.34753 3.28408 2.34494C3.47981 2.34235 3.66676 2.26334 3.80502 2.12478L2.71802 1.09178ZM8.66402 17.8118C8.74742 17.8655 8.84065 17.9022 8.93832 17.9197C9.03599 17.9371 9.13615 17.935 9.233 17.9135C9.32985 17.892 9.42147 17.8515 9.50255 17.7943C9.58363 17.7371 9.65256 17.6644 9.70535 17.5804C9.75813 17.4964 9.79373 17.4027 9.81007 17.3049C9.82641 17.207 9.82317 17.1069 9.80054 17.0103C9.7779 16.9137 9.73633 16.8225 9.67822 16.7421C9.62012 16.6617 9.54663 16.5936 9.46202 16.5418L8.66402 17.8118ZM13.113 18.0578C12.9182 18.0171 12.7152 18.0554 12.5487 18.1644C12.3822 18.2733 12.2657 18.444 12.225 18.6388C12.1843 18.8336 12.2227 19.0366 12.3316 19.2031C12.4406 19.3696 12.6112 19.4861 12.806 19.5268L13.113 18.0578ZM13.645 13.5438L14.1 13.0638L13.012 12.0308L12.557 12.5108L13.645 13.5438ZM15.599 12.8618L17.509 13.9618L18.258 12.6618L16.347 11.5618L15.599 12.8618ZM17.878 16.2418L16.457 17.7368L17.545 18.7708L18.965 17.2748L17.878 16.2418ZM6.35902 13.9588C2.48302 9.87778 1.83302 6.43478 1.75202 4.92478L0.254024 5.00578C0.354024 6.85578 1.13802 10.6398 5.27202 14.9918L6.35902 13.9588ZM7.73502 7.32178L8.02102 7.01978L6.93402 5.98678L6.64702 6.28878L7.73502 7.32178ZM8.24702 3.25978L6.98602 1.47678L5.76102 2.34278L7.02102 4.12578L8.24702 3.25978ZM7.19002 6.80478C7.01006 6.63133 6.82838 6.45965 6.64502 6.28978L6.64302 6.29178L6.64002 6.29478L6.59002 6.35278C6.49211 6.4826 6.41455 6.62659 6.36002 6.77978C6.26202 7.05478 6.21002 7.41878 6.27602 7.87278C6.40602 8.76478 6.99102 9.96378 8.51802 11.5728L9.60602 10.5388C8.17802 9.03578 7.82602 8.11078 7.76002 7.65478C7.72802 7.43478 7.76002 7.31978 7.77302 7.28278L7.78102 7.26378L7.75302 7.30078L7.73502 7.32178L7.19002 6.80478ZM8.51802 11.5728C10.041 13.1768 11.191 13.8058 12.068 13.9488C12.519 14.0218 12.884 13.9628 13.16 13.8538C13.3135 13.7942 13.456 13.7097 13.582 13.6038L13.617 13.5698L13.631 13.5558L13.638 13.5498L13.641 13.5468L13.642 13.5448C13.642 13.5448 13.644 13.5438 13.1 13.0268C12.556 12.5108 12.557 12.5098 12.557 12.5088L12.559 12.5078L12.561 12.5048L12.567 12.4998L12.614 12.4578C12.6234 12.4525 12.6217 12.4528 12.609 12.4588C12.589 12.4668 12.499 12.4988 12.309 12.4678C11.907 12.4018 11.039 12.0478 9.60602 10.5388L8.51802 11.5728ZM6.98602 1.47678C5.97202 0.0427846 3.94402 -0.200216 2.71802 1.09178L3.80502 2.12478C4.32802 1.57478 5.24902 1.61778 5.76102 2.34278L6.98602 1.47678ZM16.457 17.7368C16.178 18.0308 15.887 18.1888 15.603 18.2168L15.75 19.7088C16.497 19.6358 17.102 19.2378 17.545 18.7708L16.457 17.7368ZM8.02102 7.01978C8.98902 6.00078 9.05702 4.40678 8.24702 3.25978L7.02102 4.12578C7.44302 4.72278 7.37902 5.51878 6.93402 5.98678L8.02102 7.01978ZM17.509 13.9618C18.33 14.4348 18.491 15.5968 17.878 16.2418L18.965 17.2748C20.27 15.9008 19.89 13.6018 18.258 12.6618L17.509 13.9618ZM14.1 13.0638C14.485 12.6578 15.086 12.5668 15.599 12.8618L16.347 11.5618C15.248 10.9298 13.887 11.1108 13.012 12.0308L14.1 13.0638ZM9.46202 16.5418C8.47902 15.9238 7.43202 15.0878 6.35902 13.9588L5.27202 14.9918C6.42602 16.2068 7.56902 17.1238 8.66402 17.8118L9.46202 16.5418ZM15.603 18.2168C14.7701 18.2894 13.9299 18.2358 13.113 18.0578L12.806 19.5268C13.7726 19.7356 14.7651 19.797 15.75 19.7088L15.603 18.2168Z" fill="#B2B2B2"/>
</svg>
