<svg width="6" height="12" viewBox="0 0 6 12" fill="none" xmlns="http://www.w3.org/2000/svg">
<path d="M0.15711 11.069L4.76811 6.38403C4.86924 6.28181 4.92596 6.14382 4.92596 6.00003C4.92596 5.85624 4.86924 5.71825 4.76811 5.61603L0.158111 0.931027C0.057035 0.828172 0.000398636 0.689734 0.000398636 0.545527C0.000398636 0.401321 0.057035 0.262883 0.158111 0.160028C0.207488 0.109379 0.266503 0.0691266 0.33168 0.0416429C0.396857 0.0141592 0.466877 0 0.537611 0C0.608346 0 0.678364 0.0141592 0.743541 0.0416429C0.808718 0.0691266 0.867733 0.109379 0.91711 0.160028L5.52711 4.84403C5.83004 5.15255 5.99976 5.56765 5.99976 6.00003C5.99976 6.4324 5.83004 6.84751 5.52711 7.15603L0.91711 11.84C0.867718 11.8908 0.80864 11.9312 0.743371 11.9588C0.678102 11.9864 0.607965 12.0006 0.53711 12.0006C0.466255 12.0006 0.39612 11.9864 0.330851 11.9588C0.265581 11.9312 0.206503 11.8908 0.15711 11.84C0.0560346 11.7372 -0.000601768 11.5987 -0.000601768 11.4545C-0.000601768 11.3103 0.0560346 11.1719 0.15711 11.069Z" fill="#222222"/>
</svg>
