<svg width="20" height="20" viewBox="0 0 20 20" fill="none" xmlns="http://www.w3.org/2000/svg">
<path d="M18.7325 19.513L11.4268 12.2073C10.8435 12.7043 10.1726 13.0889 9.41429 13.3612C8.65596 13.6334 7.89374 13.7695 7.12763 13.7695C5.2594 13.7695 3.67818 13.1228 2.38396 11.8293C1.08974 10.5359 0.442627 8.95506 0.442627 7.08683C0.442627 5.21861 1.08896 3.637 2.38163 2.342C3.67429 1.047 5.25474 0.398722 7.12296 0.397166C8.99118 0.395611 10.5732 1.04272 11.869 2.3385C13.1647 3.63428 13.8126 5.21589 13.8126 7.08333C13.8126 7.89378 13.6691 8.67817 13.3821 9.4365C13.0951 10.1948 12.7179 10.8435 12.2505 11.3825L19.5561 18.687L18.7325 19.513ZM7.12879 12.6017C8.67657 12.6017 9.98324 12.0689 11.0488 11.0033C12.1143 9.93778 12.6471 8.63072 12.6471 7.08217C12.6471 5.53361 12.1143 4.22694 11.0488 3.16217C9.98324 2.09739 8.67657 1.56461 7.12879 1.56383C5.58102 1.56306 4.27396 2.09583 3.20763 3.16217C2.14129 4.2285 1.60852 5.53517 1.60929 7.08217C1.61007 8.62917 2.14285 9.93583 3.20763 11.0022C4.2724 12.0685 5.57907 12.6013 7.12763 12.6005" fill="black"/>
</svg>
