<svg width="50" height="35" viewBox="0 0 50 35" fill="none" xmlns="http://www.w3.org/2000/svg">
<path d="M9.74601 34.197C7.98667 34.197 6.49559 33.5823 5.27275 32.3531C4.04831 31.1238 3.43609 29.6311 3.43609 27.875H0.0890045V3.98865C0.0890045 2.87537 0.461977 1.94656 1.20792 1.20223C1.95387 0.457896 2.88267 0.0849241 3.99434 0.083313H35.9668V8.82198H41.5445L49.911 20.0667V27.875H46.0057C46.0057 29.6311 45.3902 31.1238 44.1593 32.3531C42.9285 33.5823 41.4333 34.1962 39.674 34.1946C37.9147 34.1929 36.4244 33.5791 35.2032 32.3531C33.9819 31.127 33.3697 29.6343 33.3665 27.875H16.0753C16.0753 29.6408 15.4598 31.1359 14.2289 32.3603C12.998 33.5848 11.5029 34.197 9.74359 34.197M9.75325 31.7803C10.8408 31.7803 11.7631 31.4017 12.5203 30.6445C13.2776 29.8873 13.6562 28.9641 13.6562 27.875C13.6562 26.7859 13.2776 25.8635 12.5203 25.1079C11.7631 24.3523 10.8408 23.9737 9.75325 23.9721C8.66576 23.9705 7.74339 24.3491 6.98617 25.1079C6.22895 25.8667 5.85034 26.7891 5.85034 27.875C5.85034 28.9609 6.22895 29.8832 6.98617 30.6421C7.74339 31.4009 8.66576 31.7819 9.75325 31.7803ZM2.50325 25.4583H4.06684C4.41 24.3918 5.11003 23.475 6.16692 22.7081C7.22381 21.9413 8.41926 21.5562 9.75325 21.553C11.026 21.553 12.207 21.93 13.2961 22.684C14.3836 23.4364 15.0989 24.3611 15.4421 25.4583H33.5502V2.49998H3.99192C3.61975 2.49998 3.279 2.65465 2.96967 2.96398C2.65873 3.27331 2.50325 3.61406 2.50325 3.98623V25.4583ZM39.6837 31.7803C40.7712 31.7803 41.6935 31.4017 42.4508 30.6445C43.208 29.8856 43.5866 28.9625 43.5866 27.875C43.5866 26.7875 43.208 25.8651 42.4508 25.1079C41.6935 24.3507 40.7712 23.9721 39.6837 23.9721C38.5962 23.9721 37.6738 24.3507 36.9166 25.1079C36.1594 25.8651 35.7808 26.7875 35.7808 27.875C35.7808 28.9625 36.1594 29.8848 36.9166 30.6421C37.6738 31.3993 38.5962 31.7803 39.6837 31.7803ZM35.9668 20.625H47.3542L40.2443 11.2386H35.9668V20.625Z" fill="black"/>
</svg>
