<svg width="42" height="36" viewBox="0 0 42 36" fill="none" xmlns="http://www.w3.org/2000/svg">
<path d="M20.4825 36V33.75H36.75V16.9965C36.75 12.7815 35.2005 9.26175 32.1015 6.43725C29.001 3.61125 25.3005 2.19825 21 2.19825C16.6995 2.19825 12.999 3.61125 9.8985 6.43725C6.798 9.26325 5.2485 12.783 5.25 16.9965V29.8125H0.75V19.224H3L3.03825 16.47C3.10725 14.115 3.639 11.9362 4.6335 9.93375C5.628 7.93125 6.936 6.189 8.5575 4.707C10.179 3.225 12.0652 2.07 14.2162 1.242C16.3672 0.414 18.6285 0 21 0C23.3715 0 25.6312 0.414 27.7792 1.242C29.9212 2.07 31.806 3.2235 33.4335 4.7025C35.061 6.18 36.369 7.92 37.3575 9.9225C38.3475 11.9235 38.8815 14.0948 38.9595 16.4363L38.9977 19.2262H41.2477V29.8125H38.9977V36H20.4825ZM15.1163 21.4627C14.6513 21.4627 14.2463 21.3053 13.9013 20.9903C13.5563 20.6753 13.3837 20.2852 13.3837 19.8202C13.3837 19.3552 13.5563 18.957 13.9013 18.6255C14.2463 18.294 14.6513 18.129 15.1163 18.1305C15.5813 18.1305 15.9855 18.2917 16.329 18.6143C16.674 18.9382 16.8465 19.3395 16.8465 19.818C16.8465 20.283 16.674 20.673 16.329 20.988C15.984 21.303 15.579 21.4605 15.114 21.4605M26.886 21.4605C26.421 21.4605 26.016 21.303 25.671 20.988C25.326 20.673 25.1535 20.283 25.1535 19.818C25.1535 19.353 25.326 18.9555 25.671 18.6255C26.016 18.2955 26.421 18.1305 26.886 18.1305C27.351 18.1305 27.7552 18.2917 28.0987 18.6143C28.4422 18.9368 28.6147 19.338 28.6163 19.818C28.6163 20.283 28.4437 20.673 28.0987 20.988C27.7537 21.303 27.3487 21.4605 26.8837 21.4605M9.1155 17.8875C8.9115 14.5185 9.99675 11.6468 12.3713 9.27225C14.7443 6.89775 17.6595 5.7105 21.117 5.7105C24.0195 5.7105 26.592 6.58275 28.8345 8.32725C31.077 10.0718 32.4473 12.363 32.9453 15.201C29.9648 15.1635 27.1988 14.403 24.6473 12.9195C22.0958 11.436 20.1382 9.3735 18.7747 6.732C18.2317 9.3285 17.103 11.604 15.3885 13.5585C13.6725 15.513 11.5815 16.956 9.1155 17.8875Z" fill="black"/>
</svg>
