<svg width="85" height="85" viewBox="0 0 85 85" fill="none" xmlns="http://www.w3.org/2000/svg">
<path fill-rule="evenodd" clip-rule="evenodd" d="M42.5822 84.3327C48.1086 84.3327 53.581 83.2442 58.6867 81.1293C63.7925 79.0144 68.4317 75.9146 72.3395 72.0068C76.2473 68.099 79.3471 63.4598 81.462 58.354C83.5769 53.2483 84.6654 47.7759 84.6654 42.2495C84.6654 36.723 83.5769 31.2507 81.462 26.1449C79.3471 21.0392 76.2473 16.3999 72.3395 12.4922C68.4317 8.58436 63.7925 5.48453 58.6867 3.36965C53.581 1.25477 48.1086 0.16626 42.5822 0.16626C31.421 0.16626 20.717 4.60001 12.8249 12.4922C4.93277 20.3843 0.499023 31.0883 0.499023 42.2495C0.499023 53.4106 4.93277 64.1147 12.8249 72.0068C20.717 79.8989 31.421 84.3327 42.5822 84.3327ZM36.8916 23.4991L63.2824 38.1627C64.011 38.5678 64.6181 39.1603 65.0407 39.8788C65.4633 40.5974 65.6862 41.4159 65.6862 42.2495C65.6862 43.0831 65.4633 43.9016 65.0407 44.6201C64.6181 45.3387 64.011 45.9312 63.2824 46.3362L36.8916 60.9999C36.0371 61.4749 35.0733 61.7183 34.0957 61.7062C33.1181 61.694 32.1607 61.4266 31.3183 60.9305C30.4758 60.4344 29.7776 59.7268 29.2928 58.8778C28.8081 58.0288 28.5535 57.0678 28.5545 56.0902V28.4088C28.5535 27.4311 28.8081 26.4702 29.2928 25.6212C29.7776 24.7722 30.4758 24.0646 31.3183 23.5685C32.1607 23.0723 33.1181 22.805 34.0957 22.7928C35.0733 22.7806 36.0371 23.0241 36.8916 23.4991Z" fill="white"/>
</svg>
