<svg width="17" height="12" viewBox="0 0 17 12" fill="none" xmlns="http://www.w3.org/2000/svg">
<path d="M10.5492 6.12854C10.5492 6.73988 10.3063 7.32618 9.87402 7.75846C9.44173 8.19074 8.85541 8.43359 8.24406 8.43359C7.63271 8.43359 7.0464 8.19074 6.61411 7.75846C6.18182 7.32618 5.93896 6.73988 5.93896 6.12854C5.93896 5.5172 6.18182 4.9309 6.61411 4.49862C7.0464 4.06634 7.63271 3.82349 8.24406 3.82349C8.85541 3.82349 9.44173 4.06634 9.87402 4.49862C10.3063 4.9309 10.5492 5.5172 10.5492 6.12854Z" stroke="black" stroke-linecap="round" stroke-linejoin="round"/>
<path d="M0.560394 6.12845C1.78978 2.98052 4.66039 0.75 8.24405 0.75C11.8277 0.75 14.6983 2.98052 15.9277 6.12845C14.6983 9.27639 11.8277 11.5069 8.24405 11.5069C4.66039 11.5069 1.78978 9.27639 0.560394 6.12845Z" stroke="black" stroke-linecap="round" stroke-linejoin="round"/>
</svg>
