<svg width="22" height="20" viewBox="0 0 22 20" fill="none" xmlns="http://www.w3.org/2000/svg">
<path d="M2.77 9.78125C2.32518 9.33938 1.97276 8.81341 1.73326 8.23397C1.49376 7.65453 1.37197 7.03322 1.375 6.40625C1.375 5.13818 1.87874 3.92205 2.7754 3.02539C3.67205 2.12874 4.88818 1.625 6.15625 1.625C7.93375 1.625 9.48625 2.5925 10.3075 4.0325H11.5675C11.985 3.30019 12.5891 2.6916 13.3183 2.2687C14.0475 1.8458 14.8758 1.62369 15.7188 1.625C16.9868 1.625 18.2029 2.12874 19.0996 3.02539C19.9963 3.92205 20.5 5.13818 20.5 6.40625C20.5 7.7225 19.9375 8.9375 19.105 9.78125L10.9375 17.9375L2.77 9.78125ZM19.8925 10.58C20.9613 9.5 21.625 8.0375 21.625 6.40625C21.625 4.83981 21.0027 3.33753 19.8951 2.2299C18.7875 1.12226 17.2852 0.499997 15.7188 0.499997C13.75 0.499997 12.0063 1.45625 10.9375 2.94125C10.392 2.18356 9.67368 1.56685 8.84216 1.14229C8.01065 0.717728 7.08988 0.497542 6.15625 0.499997C4.58982 0.499997 3.08754 1.12226 1.9799 2.2299C0.872264 3.33753 0.25 4.83981 0.25 6.40625C0.25 8.0375 0.91375 9.5 1.9825 10.58L10.9375 19.535L19.8925 10.58Z" fill="black"/>
</svg>
